Coordinates
version=1
nRows=13
nColumns=38
inDegrees=yes

Units are S.I. units (second, meters, Newtons, ...)
If the header above contains a line with 'inDegrees', this indicates whether rotational values are in degrees (yes) or radians (no).

endheader
time	pelvis_tilt	pelvis_list	pelvis_rotation	pelvis_tx	pelvis_ty	pelvis_tz	hip_flexion_r	hip_adduction_r	hip_rotation_r	knee_angle_r	knee_angle_r_beta	ankle_angle_r	subtalar_angle_r	mtp_angle_r	hip_flexion_l	hip_adduction_l	hip_rotation_l	knee_angle_l	knee_angle_l_beta	ankle_angle_l	subtalar_angle_l	mtp_angle_l	lumbar_extension	lumbar_bending	lumbar_rotation	arm_flex_r	arm_add_r	arm_rot_r	elbow_flex_r	pro_sup_r	radius_hand_r_lock	arm_flex_l	arm_add_l	arm_rot_l	elbow_flex_l	pro_sup_l	radius_hand_l_lock
      5.32500000	    -86.02638400	      6.65640080	   -179.40261114	      0.92325631	      0.43185543	     -0.59927252	     10.47407558	      0.99647037	    -13.96325427	     11.66946532	      0.20367059	     15.47321740	      3.69841875	     -7.49999987	     12.86340766	    -14.94228818	    -17.52830940	     21.64515833	      0.37777928	     28.84634813	     13.90654219	     -7.49999987	    -19.99042105	      8.98725556	      1.45421406	      8.73611853	     -8.08235718	      0.01916048	     18.87324132	     93.82569120	      0.00000000	      6.55716451	     -5.94297418	      4.64723789	     23.73446350	    102.33979988	      0.00000000
      5.33333333	    -86.34724164	      6.63279513	   -179.64678301	      0.92338013	      0.43393500	     -0.59950645	     10.06294072	      1.09269386	    -13.36377515	     11.73191701	      0.20476058	     15.01345146	      3.14125428	     -7.49999987	     12.28541808	    -14.87042242	    -17.48640219	     21.51892762	      0.37557614	     28.44615003	     13.68833965	     -7.49999987	    -20.19271217	      8.88133998	      1.87580677	      9.57381222	     -7.97198399	     -0.83053763	     19.12486033	     96.11471368	      0.00000000	      7.44775617	     -5.76239538	      3.84539859	     23.79944297	    104.50225516	      0.00000000
      5.34166667	    -86.84294912	      6.64030402	   -179.47566461	      0.92358325	      0.43679129	     -0.59903021	      9.44057592	      1.11666286	    -13.12142176	     11.93144708	      0.20824304	     14.80670377	      2.63224803	     -7.49999987	     11.57526206	    -14.75005980	    -17.21540626	     21.40705183	      0.37362354	     28.22180497	     13.55967480	     -7.49999987	    -20.41751270	      8.92676664	      1.90967760	     10.38899051	     -7.86833139	     -0.89470887	     19.33830673	     96.81748179	      0.00000000	      8.32146276	     -5.76972119	      4.16775312	     23.79455967	    105.08046299	      0.00000000
      5.35000000	    -87.26997249	      6.89040969	   -179.32927636	      0.92382015	      0.43942780	     -0.59890196	      8.72995054	      1.48106873	    -12.83895088	     11.77483267	      0.20550960	     14.71525942	      2.15601620	     -7.49999987	     11.08883552	    -14.96187096	    -16.80975916	     21.56201084	      0.37632808	     28.20473886	     13.26312639	     -7.49999987	    -20.60751412	      9.25500520	      2.03861272	     11.20324004	     -7.77389494	     -1.36254585	     19.69201666	     97.64134046	      0.00000000	      9.28352113	     -5.73017275	      4.70866905	     23.72609878	    104.96251605	      0.00000000
      5.35833333	    -87.12627404	      7.73872076	   -179.71834901	      0.92344926	      0.44029529	     -0.60043300	      8.74911662	      2.63176147	    -12.46220054	     11.48402340	      0.20043402	     14.25354615	      1.98770701	     -7.49999987	     11.59606556	    -16.19694927	    -16.85060928	     22.41849895	      0.39127662	     28.35368768	     13.23203041	     -7.49999987	    -20.45844872	     10.07328203	      2.75779600	     12.28254199	     -7.92159533	     -0.64786928	     19.91077762	     97.12137289	      0.00000000	     10.30951044	     -5.49961932	      5.18124807	     23.65261355	    104.85073552	      0.00000000
      5.36666667	    -87.53857961	      8.13648368	   -179.68127966	      0.92382197	      0.44293312	     -0.60053359	      7.95612928	      3.27982822	    -11.57152846	     11.11301596	      0.19395872	     13.75364700	      0.78878134	     -7.49999987	     11.10884717	    -16.70334057	    -16.60302534	     22.66592813	      0.39559507	     28.40324012	     13.04633207	     -7.49999987	    -20.67478664	     10.53059496	      2.94428295	     13.29531249	     -8.04942830	      0.57183625	     20.12331673	     96.04409154	      0.00000000	     11.23402380	     -5.34292331	      5.45939256	     23.65062060	    104.24780563	      0.00000000
      5.37500000	    -87.85145198	      8.07250509	   -180.05051982	      0.92411452	      0.44532069	     -0.60106122	      7.53093276	      3.29836912	    -10.96823485	     11.26114401	      0.19654404	     13.78036822	      0.49618165	     -7.49999987	     10.48588558	    -16.76554874	    -17.05952549	     22.82453817	      0.39836334	     28.39217427	     12.95469483	     -7.49999987	    -20.84208971	     10.36029035	      3.45784182	     14.14342091	     -8.03255102	      0.50974933	     20.51958239	     96.87630981	      0.00000000	     12.29904142	     -5.40730775	      6.26972201	     23.63865358	    105.01434231	      0.00000000
      5.38333333	    -87.91039131	      8.54613446	   -179.83464198	      0.92357778	      0.44709331	     -0.60093667	      7.36935172	      3.86479390	    -10.97153364	     11.27005549	      0.19669958	     13.64309100	      0.15373782	     -7.49999987	     10.80716369	    -17.53775634	    -17.11678242	     23.69035567	      0.41347471	     28.60770499	     13.31399966	     -7.49999987	    -20.68276629	     10.92762440	      3.52112804	     15.05920210	     -8.04809842	      0.44234137	     20.76566560	     98.14703681	      0.00000000	     13.25190682	     -5.36274417	      6.41379010	     23.86411226	    105.06875080	      0.00000000
      5.39166667	    -88.17009665	      9.08874593	   -179.66363430	      0.92351415	      0.44949070	     -0.60088796	      6.68308302	      4.67601866	    -10.14427676	     10.69583458	      0.18667753	     13.00321451	     -1.14251675	     -7.49999987	     10.67519708	    -18.38981569	    -17.41725975	     24.22947246	      0.42288407	     28.77635321	     14.01634988	     -7.49999987	    -20.69967844	     11.56528535	      3.66069985	     16.01963008	     -8.17281285	      2.05062849	     21.04298575	     93.95250739	      0.00000000	     14.16665510	     -5.19070545	      6.99068111	     23.91678563	    101.65908420	      0.00000000
      5.40000000	    -88.33909188	      9.09462449	   -179.86969711	      0.92335603	      0.45188876	     -0.60104950	      6.62811896	      4.58818256	    -10.49564677	     11.30881941	      0.19737613	     13.56521650	     -0.40273358	     -7.49999987	     10.32878958	    -18.51827165	    -17.93527883	     24.42343979	      0.42626944	     28.82711081	     14.31184566	     -7.49999987	    -20.67369443	     11.54028467	      3.97402274	     16.94857467	     -8.12969549	      1.55317475	     21.16036987	     97.68844408	      0.00000000	     15.00641542	     -5.04230322	      6.64023727	     23.92605566	    105.72127660	      0.00000000
      5.40833333	    -88.84378531	      8.95377822	   -180.16391450	      0.92426110	      0.45489559	     -0.60151278	      5.92979351	      4.45480621	    -10.26800759	     11.54434946	      0.20148691	     13.49589939	     -0.22772377	     -7.49999987	      9.32311993	    -18.40580018	    -18.48378231	     24.21504706	      0.42263230	     28.27434943	     14.51299129	     -7.49999987	    -20.93599651	     11.31346539	      4.46494735	     17.78619808	     -8.12891920	      1.32342427	     21.39379429	     97.68848294	      0.00000000	     16.08939588	     -5.04728122	      7.20738776	     23.71508476	    105.61693008	      0.00000000
      5.41666667	    -88.98488381	      9.18445068	   -180.17329848	      0.92411944	      0.45742238	     -0.60191497	      5.64698404	      4.75955538	    -10.10548563	     11.66249177	      0.20354888	     13.58101725	     -0.49425482	     -7.49999987	      9.28138629	    -18.87110725	    -18.80299863	     24.81307961	      0.43306994	     28.53657318	     14.93019258	     -7.49999987	    -20.79678973	     11.55498295	      4.67765124	     18.68724431	     -8.15694466	      1.90192231	     21.54121297	     97.64702266	      0.00000000	     17.03492945	     -5.12928762	      7.81134090	     23.80198816	    105.29073010	      0.00000000
      5.42500000	    -89.07564140	      9.38074972	   -180.08196534	      0.92400790	      0.45964621	     -0.60195673	      5.50524843	      4.97969649	    -10.06106248	     11.84246799	      0.20669006	     13.68693237	     -0.71397441	     -7.49999987	      9.31711494	    -19.19085970	    -18.65524972	     25.33462191	      0.44217257	     28.70177080	     14.87421220	     -7.49999987	    -20.63064029	     11.80148370	      4.78360799	     19.60303874	     -8.16562456	      2.37378680	     21.72803862	     97.62606943	      0.00000000	     18.01019033	     -5.18869029	      8.57762543	     23.83158705	    105.02197556	      0.00000000
